{"title":"Bob's Burgers 304 720p XBOX360/PS3 READY","uid":7937403,"size":432920130,"categoryP":"video","categoryS":"hd___tv_shows","magnet":"?xt=urn:btih:821f760d056bac2a6f7fa952523fd3cf13ca3bea&amp;dn=Bob%27s+Burgers+304+720p+XBOX360%2FPS3+READY&amp;tr=udp%3A%2F%2Ftracker.openbittorrent.com%3A80&amp;tr=udp%3A%2F%2Fopen.demonii.com%3A1337&amp;tr=udp%3A%2F%2Ftracker.coppersurfer.tk%3A6969&amp;tr=udp%3A%2F%2Fexodus.desync.com%3A6969","seeders":3,"leechers":0,"uploader":"Danimal1q2w3","files":1,"time":1355896817,"description":"304 of bobs burgers\n\nEnjoy, SEED\n\nVideo\nID                                       : 0\nFormat                                   : MPEG-4 Visual\nFormat profile                           : Simple@L3\nFormat settings, BVOP                    : No\nFormat settings, QPel                    : No\nFormat settings, GMC                     : No warppoints\nFormat settings, Matrix                  : Default (H.263)\nCodec ID                                 : XVID\nCodec ID/Hint                            : XviD\nDuration                                 : 21mn 31s\nSource duration                          : 21mn 31s\nBit rate                                 : 2 357 Kbps\nWidth                                    : 1 280 pixels\nHeight                                   : 720 pixels\nDisplay aspect ratio                     : 16:9\nFrame rate                               : 24.000 fps\nColor space                              : YUV\nChroma subsampling                       : 4:2:0\nBit depth                                : 8 bits\nScan type                                : Progressive\nCompression mode                         : Lossy\nBits/(Pixel*Frame)                       : 0.107\nStream size                              : 363 MiB (88%)\nWriting library                          : XviD 63\n\nAudio\nID                                       : 1\nFormat                                   : MPEG Audio\nFormat version                           : Version 1\nFormat profile                           : Layer 3\nMode                                     : Joint stereo\nCodec ID                                 : 55\nCodec ID/Hint                            : MP3\nDuration                                 : 21mn 31s\nBit rate mode                            : Variable\nBit rate                                 : 311 Kbps\nChannel(s)                               : 2 channels\nSampling rate                            : 48.0 KHz\nCompression mode                         : Lossy\nStream size                              : 47.9 MiB (12%)\nAlignment                                : Aligned on interleaves\nInterleave, duration                     : 24 ms (0.58 video frame)\nInterleave, preload duration             : 274 ms\nWriting library                          : LAME3.98.4\n","torrent":{"xt":"urn:btih:821f760d056bac2a6f7fa952523fd3cf13ca3bea","amp;dn":"Bob%27s+Burgers+304+720p+XBOX360%2FPS3+READY","amp;tr":["udp%3A%2F%2Ftracker.openbittorrent.com%3A80","udp%3A%2F%2Fopen.demonii.com%3A1337","udp%3A%2F%2Ftracker.coppersurfer.tk%3A6969","udp%3A%2F%2Fexodus.desync.com%3A6969"],"infoHash":"821f760d056bac2a6f7fa952523fd3cf13ca3bea","infoHashBuffer":{"type":"Buffer","data":[130,31,118,13,5,107,172,42,111,127,169,82,82,63,211,207,19,202,59,234]},"announce":[],"urlList":[]}}